<svg  viewBox="0 0 20 25" xmlns="http://www.w3.org/2000/svg">
<path d="M12.4374 0.353784C12.664 0.127256 12.9713 0 13.2917 0C13.6121 0 13.9194 0.127256 14.146 0.353784L18.9793 5.18712C19.2058 5.41371 19.3331 5.721 19.3331 6.04141C19.3331 6.36182 19.2058 6.6691 18.9793 6.8957L14.146 11.729C13.9181 11.9491 13.6128 12.0709 13.296 12.0682C12.9792 12.0654 12.6761 11.9383 12.4521 11.7143C12.2281 11.4903 12.101 11.1872 12.0982 10.8704C12.0955 10.5536 12.2173 10.2483 12.4374 10.0205L15.2081 7.24974H1.20833C0.887863 7.24974 0.580519 7.12244 0.353913 6.89583C0.127306 6.66922 0 6.36188 0 6.04141C0 5.72094 0.127306 5.41359 0.353913 5.18699C0.580519 4.96038 0.887863 4.83308 1.20833 4.83308H15.2081L12.4374 2.06237C12.2108 1.83577 12.0836 1.52848 12.0836 1.20808C12.0836 0.887669 12.2108 0.580379 12.4374 0.353784ZM6.89596 12.4371C7.12249 12.6637 7.24974 12.971 7.24974 13.2914C7.24974 13.6118 7.12249 13.9191 6.89596 14.1457L4.12525 16.9164H18.125C18.4455 16.9164 18.7528 17.0437 18.9794 17.2703C19.206 17.4969 19.3333 17.8043 19.3333 18.1247C19.3333 18.4452 19.206 18.7526 18.9794 18.9792C18.7528 19.2058 18.4455 19.3331 18.125 19.3331H4.12525L6.89596 22.1038C7.11607 22.3317 7.23786 22.6369 7.23511 22.9537C7.23235 23.2705 7.10527 23.5736 6.88124 23.7976C6.6572 24.0217 6.35414 24.1488 6.03732 24.1515C5.7205 24.1543 5.41527 24.0325 5.18738 23.8124L0.354042 18.979C0.127514 18.7524 0.000258128 18.4451 0.000258128 18.1247C0.000258128 17.8043 0.127514 17.497 0.354042 17.2705L5.18738 12.4371C5.41397 12.2106 5.72126 12.0833 6.04167 12.0833C6.36207 12.0833 6.66936 12.2106 6.89596 12.4371Z"/>
</svg>
