<svg width="12" height="20" viewBox="0 0 12 20" xmlns="http://www.w3.org/2000/svg">
<path fill-rule="evenodd" clip-rule="evenodd" d="M11.325 8.40872C11.7113 8.79544 11.9282 9.31966 11.9282 9.86623C11.9282 10.4128 11.7113 10.937 11.325 11.3237L3.54804 19.1035C3.16112 19.4902 2.63642 19.7074 2.08936 19.7073C1.81849 19.7072 1.55028 19.6538 1.30005 19.5501C1.04982 19.4464 0.822467 19.2944 0.630976 19.1028C0.439484 18.9112 0.287602 18.6838 0.184001 18.4335C0.0804006 18.1832 0.0271112 17.915 0.0271742 17.6441C0.0272381 17.3732 0.0806553 17.105 0.184374 16.8548C0.288092 16.6046 0.440081 16.3772 0.631663 16.1857L6.94979 9.86623L0.630289 3.54672C0.433211 3.35656 0.275979 3.12904 0.167768 2.87746C0.0595585 2.62588 0.00253734 2.35527 2.91975e-05 2.08141C-0.00247894 1.80756 0.0495783 1.53594 0.153164 1.28242C0.256748 1.0289 0.409785 0.798551 0.603347 0.604806C0.796908 0.411063 1.02712 0.257808 1.28054 0.153983C1.53396 0.0501605 1.80553 -0.00215237 2.07939 9.64138e-05C2.35324 0.00234711 2.62391 0.0591136 2.87559 0.167087C3.12728 0.27506 3.35494 0.432077 3.54529 0.628974L11.3278 8.40872L11.325 8.40872Z"/>
</svg>
