<svg width="16" height="16" viewBox="0 0 16 16" fill="none" xmlns="http://www.w3.org/2000/svg">
<path fill-rule="evenodd" clip-rule="evenodd" d="M6.37549 0.708966C6.37562 0.561243 6.32957 0.417174 6.24377 0.296922C6.15797 0.176669 6.03672 0.0862515 5.89698 0.0383211C5.75725 -0.00960923 5.60603 -0.0126534 5.46448 0.0296147C5.32294 0.0718828 5.19814 0.157348 5.10757 0.27405L0.149242 6.64905C0.0525154 6.77339 0 6.92643 0 7.08397C0 7.2415 0.0525154 7.39454 0.149242 7.51888L5.10757 13.8939C5.19814 14.0106 5.32294 14.0961 5.46448 14.1383C5.60603 14.1806 5.75725 14.1775 5.89698 14.1296C6.03672 14.0817 6.15797 13.9913 6.24377 13.871C6.32957 13.7508 6.37562 13.6067 6.37549 13.459V10.6327C10.1856 10.712 12.0159 11.4353 12.9354 12.2215C13.8094 12.9688 13.9695 13.8478 14.136 14.7687L14.1792 15.006C14.211 15.1758 14.3037 15.3281 14.44 15.4343C14.5762 15.5405 14.7466 15.5932 14.919 15.5826C15.0914 15.572 15.254 15.4987 15.3762 15.3766C15.4984 15.2545 15.5717 15.092 15.5824 14.9195C15.7035 12.9731 15.5215 10.1525 14.1466 7.79301C12.8121 5.50297 10.4094 3.74205 6.37549 3.55788V0.708966Z" fill="#525252"/>
</svg>
