<svg width="12" height="20" viewBox="0 0 12 20" xmlns="http://www.w3.org/2000/svg">
<path fill-rule="evenodd" clip-rule="evenodd" d="M0.603185 11.2986C0.216946 10.9118 0 10.3876 0 9.84105C0 9.29449 0.216946 8.77027 0.603185 8.38355L8.38019 0.6038C8.7671 0.217064 9.2918 -0.000128874 9.83886 5.73698e-08C10.1097 6.38976e-05 10.3779 0.0534796 10.6282 0.157198C10.8784 0.260916 11.1058 0.412905 11.2972 0.604487C11.4887 0.796069 11.6406 1.02349 11.7442 1.27377C11.8478 1.52405 11.9011 1.79229 11.901 2.06316C11.901 2.33404 11.8476 2.60224 11.7438 2.85247C11.6401 3.10271 11.4881 3.33006 11.2966 3.52155L4.97843 9.84105L11.2979 16.1606C11.495 16.3507 11.6522 16.5782 11.7605 16.8298C11.8687 17.0814 11.9257 17.352 11.9282 17.6259C11.9307 17.8997 11.8786 18.1713 11.7751 18.4249C11.6715 18.6784 11.5184 18.9087 11.3249 19.1025C11.1313 19.2962 10.9011 19.4495 10.6477 19.5533C10.3943 19.6571 10.1227 19.7094 9.84884 19.7072C9.57498 19.7049 9.30431 19.6482 9.05263 19.5402C8.80095 19.4322 8.57329 19.2752 8.38293 19.0783L0.600435 11.2986H0.603185Z"/>
</svg>
