<svg viewBox="0 0 21 23" fill="none" xmlns="http://www.w3.org/2000/svg">
<path d="M19.125 3.375C19.4234 3.375 19.7095 3.49353 19.9205 3.7045C20.1315 3.91548 20.25 4.20163 20.25 4.5C20.25 4.79837 20.1315 5.08452 19.9205 5.2955C19.7095 5.50647 19.4234 5.625 19.125 5.625H18L17.9966 5.70487L16.947 20.4097C16.9066 20.9774 16.6526 21.5087 16.2361 21.8965C15.8197 22.2844 15.2717 22.5 14.7026 22.5H5.54625C4.97716 22.5 4.4292 22.2844 4.01275 21.8965C3.59629 21.5087 3.34228 20.9774 3.30187 20.4097L2.25225 5.706L2.25 5.625H1.125C0.826631 5.625 0.540483 5.50647 0.329505 5.2955C0.118526 5.08452 0 4.79837 0 4.5C0 4.20163 0.118526 3.91548 0.329505 3.7045C0.540483 3.49353 0.826631 3.375 1.125 3.375H19.125ZM12.375 0C12.6734 0 12.9595 0.118526 13.1705 0.329505C13.3815 0.540483 13.5 0.826631 13.5 1.125C13.5 1.42337 13.3815 1.70952 13.1705 1.9205C12.9595 2.13147 12.6734 2.25 12.375 2.25H7.875C7.57663 2.25 7.29048 2.13147 7.0795 1.9205C6.86853 1.70952 6.75 1.42337 6.75 1.125C6.75 0.826631 6.86853 0.540483 7.0795 0.329505C7.29048 0.118526 7.57663 0 7.875 0H12.375Z" fill="#525252"/>
</svg>
