<svg width="21" height="20" viewBox="0 0 21 20" fill="none" xmlns="http://www.w3.org/2000/svg">
<path d="M14.1719 0.0922776C13.9644 -0.0114479 13.7241 -0.0284668 13.5039 0.0449648C13.2838 0.118396 13.1019 0.276264 12.9981 0.48384L12.1581 2.16253C11.5411 2.03211 10.9119 1.96715 10.2812 1.96872C9.62938 1.96872 9.00069 2.03434 8.4035 2.16253L7.56394 0.48384C7.45783 0.280333 7.27601 0.126663 7.05767 0.0559492C6.83932 -0.014765 6.60194 0.0031384 6.39667 0.105801C6.1914 0.208463 6.03469 0.387665 5.9603 0.604785C5.88592 0.821904 5.89981 1.05956 5.999 1.26653L6.72656 2.72165C6.04475 3.03845 5.41805 3.46235 4.87025 3.97728C4.15175 4.65792 3.58779 5.48492 3.2165 6.40234C5.14325 7.20165 7.55037 7.65578 10.2812 7.65578C13.0121 7.65578 15.4192 7.20165 17.346 6.40234C16.9747 5.48492 16.4107 4.65792 15.6923 3.97728C15.1445 3.46235 14.5178 3.03845 13.8359 2.72165L14.5635 1.26653C14.6673 1.059 14.6843 0.818756 14.611 0.598633C14.5376 0.37851 14.3799 0.196531 14.1724 0.0927151M3.70738 7.98609C5.4495 8.56884 7.4515 8.90396 9.62456 8.95997V19.8835C7.74725 19.7522 6.09875 19.0575 4.86981 17.8972C4.04775 17.122 3.42825 16.1516 3.05331 15.0342L1.41838 15.6878C1.20424 15.7678 0.9673 15.7609 0.758241 15.6684C0.549183 15.5759 0.384608 15.4053 0.299721 15.1931C0.214834 14.9809 0.216377 14.7438 0.304019 14.5327C0.391661 14.3216 0.558443 14.1531 0.768687 14.0634L2.68406 13.2969C2.66073 13.0694 2.64673 12.838 2.64206 12.6026L2.63506 12.25H0.875C0.642936 12.25 0.420376 12.1578 0.256282 11.9937C0.0921872 11.8296 0 11.607 0 11.375C0 11.1429 0.0921872 10.9203 0.256282 10.7562C0.420376 10.5922 0.642936 10.5 0.875 10.5H2.62631C2.62806 10.1287 2.63229 9.77386 2.639 9.43553L0.769125 8.6874C0.659904 8.6466 0.559939 8.58438 0.475104 8.50439C0.390268 8.42441 0.322274 8.32828 0.275115 8.22165C0.227956 8.11502 0.202583 8.00004 0.200488 7.88346C0.198393 7.76688 0.219618 7.65106 0.262915 7.54281C0.306212 7.43455 0.370708 7.33604 0.452615 7.25306C0.534521 7.17008 0.632186 7.1043 0.73987 7.0596C0.847555 7.0149 0.963088 6.99217 1.07968 6.99275C1.19627 6.99333 1.31158 7.0172 1.41881 7.06296L3.60631 7.93796C3.64131 7.95197 3.67515 7.96801 3.70781 7.98609M10.9371 8.95997V19.8835C12.8144 19.7522 14.4629 19.0575 15.6918 17.8972C16.5139 17.122 17.1334 16.1516 17.5083 15.0342L19.1432 15.6878C19.3574 15.7678 19.5943 15.7609 19.8034 15.6684C20.0124 15.5759 20.177 15.4053 20.2619 15.1931C20.3468 14.9809 20.3452 14.7438 20.2576 14.5327C20.17 14.3216 20.0032 14.1531 19.7929 14.0634L17.8776 13.2969C17.9009 13.0694 17.9149 12.838 17.9196 12.6026L17.9266 12.25H19.6871C19.9191 12.25 20.1417 12.1578 20.3058 11.9937C20.4699 11.8296 20.5621 11.607 20.5621 11.375C20.5621 11.1429 20.4699 10.9203 20.3058 10.7562C20.1417 10.5922 19.9191 10.5 19.6871 10.5H17.9357C17.934 10.1287 17.9298 9.77386 17.9231 9.43553L19.7929 8.6874C19.9022 8.6466 20.0021 8.58438 20.087 8.50439C20.1718 8.42441 20.2398 8.32828 20.2869 8.22165C20.3341 8.11502 20.3595 8.00004 20.3616 7.88346C20.3637 7.76688 20.3424 7.65106 20.2991 7.54281C20.2558 7.43455 20.1914 7.33604 20.1094 7.25306C20.0275 7.17008 19.9299 7.1043 19.8222 7.0596C19.7145 7.0149 19.599 6.99217 19.4824 6.99275C19.3658 6.99333 19.2505 7.0172 19.1432 7.06296L16.9557 7.93796C16.9202 7.95197 16.8862 7.96801 16.8538 7.98609C15.1121 8.56884 13.1101 8.90396 10.9371 8.95997Z" fill="#525252"/>
</svg>
