<svg width="12" height="12" viewBox="0 0 12 12" fill="none" xmlns="http://www.w3.org/2000/svg">
<path fill-rule="evenodd" clip-rule="evenodd" d="M2.52258 0.402584C2.23823 0.137624 1.86214 -0.00662274 1.47354 0.000233694C1.08494 0.00709013 0.714166 0.164514 0.43934 0.43934C0.164514 0.714166 0.00709013 1.08494 0.000233694 1.47354C-0.00662274 1.86214 0.137624 2.23823 0.402584 2.52258L3.84258 5.96258L0.402584 9.40258C0.137624 9.68693 -0.00662274 10.063 0.000233694 10.4516C0.00709013 10.8402 0.164514 11.211 0.43934 11.4858C0.714166 11.7607 1.08494 11.9181 1.47354 11.9249C1.86214 11.9318 2.23823 11.7875 2.52258 11.5226L5.96258 8.08258L9.40258 11.5226C9.68693 11.7875 10.063 11.9318 10.4516 11.9249C10.8402 11.9181 11.211 11.7607 11.4858 11.4858C11.7607 11.211 11.9181 10.8402 11.9249 10.4516C11.9318 10.063 11.7875 9.68693 11.5226 9.40258L8.08258 5.96258L11.5226 2.52258C11.7875 2.23823 11.9318 1.86214 11.9249 1.47354C11.9181 1.08494 11.7607 0.714166 11.4858 0.43934C11.211 0.164514 10.8402 0.00709013 10.4516 0.000233694C10.063 -0.00662274 9.68693 0.137624 9.40258 0.402584L5.96258 3.84258L2.52258 0.402584Z" fill="#0F0F0F"/>
</svg>
