<svg width="42" height="42" viewBox="0 0 42 42" fill="none" xmlns="http://www.w3.org/2000/svg">
<path d="M18.5655 30.942H22.6911V18.5652H18.5655V30.942ZM20.6283 14.4396C21.2128 14.4396 21.703 14.2416 22.0991 13.8455C22.4952 13.4494 22.6925 12.9599 22.6911 12.3768C22.6898 11.7937 22.4917 11.3041 22.097 10.9081C21.7023 10.512 21.2128 10.314 20.6283 10.314C20.0438 10.314 19.5543 10.512 19.1596 10.9081C18.7649 11.3041 18.5668 11.7937 18.5655 12.3768C18.5641 12.9599 18.7621 13.4501 19.1596 13.8476C19.557 14.245 20.0466 14.4423 20.6283 14.4396ZM20.6283 41.256C17.7747 41.256 15.093 40.7141 12.5833 39.6305C10.0735 38.5468 7.89033 37.0774 6.03378 35.2223C4.17723 33.3671 2.70781 31.184 1.62551 28.6729C0.543215 26.1618 0.00137783 23.4801 2.61118e-06 20.628C-0.00137261 17.7758 0.540464 15.0942 1.62551 12.5831C2.71056 10.072 4.17998 7.88883 6.03378 6.03368C7.88758 4.17854 10.0707 2.70914 12.5833 1.62548C15.0958 0.541828 17.7775 0 20.6283 0C23.4791 0 26.1608 0.541828 28.6733 1.62548C31.1859 2.70914 33.369 4.17854 35.2228 6.03368C37.0766 7.88883 38.5467 10.072 39.6331 12.5831C40.7196 15.0942 41.2607 17.7758 41.2566 20.628C41.2525 23.4801 40.7106 26.1618 39.6311 28.6729C38.5515 31.184 37.0821 33.3671 35.2228 35.2223C33.3635 37.0774 31.1804 38.5475 28.6733 39.6325C26.1663 40.7176 23.4846 41.2587 20.6283 41.256Z" fill="#B4B4B4"/>
</svg>
