<svg viewBox="0 0 17 17" xmlns="http://www.w3.org/2000/svg">
<path fill-rule="evenodd" clip-rule="evenodd" d="M6.44258 0.100152C6.79718 -0.0062208 7.17173 -0.0282258 7.53635 0.0358939C7.90096 0.100014 8.24554 0.248482 8.54257 0.469449C8.8396 0.690415 9.08086 0.97776 9.2471 1.30855C9.41333 1.63933 9.49994 2.0044 9.5 2.37461V13.9519C9.49994 14.3222 9.41333 14.6872 9.2471 15.018C9.08086 15.3488 8.8396 15.6361 8.54257 15.8571C8.24554 16.0781 7.90096 16.2265 7.53635 16.2907C7.17173 16.3548 6.79718 16.3328 6.44258 16.2264L1.69258 14.8014C1.20341 14.6547 0.774574 14.3541 0.469681 13.9444C0.164788 13.5347 8.37498e-05 13.0376 0 12.5269V3.79961C8.37498e-05 3.2889 0.164788 2.79183 0.469681 2.38212C0.774574 1.97241 1.20341 1.6719 1.69258 1.52515L6.44258 0.100152ZM10.2917 1.82994C10.2917 1.61998 10.3751 1.41862 10.5235 1.27015C10.672 1.12168 10.8734 1.03828 11.0833 1.03828H13.4583C14.0882 1.03828 14.6923 1.2885 15.1377 1.7339C15.5831 2.1793 15.8333 2.78339 15.8333 3.41328V4.20494C15.8333 4.41491 15.7499 4.61627 15.6015 4.76474C15.453 4.9132 15.2516 4.99661 15.0417 4.99661C14.8317 4.99661 14.6303 4.9132 14.4819 4.76474C14.3334 4.61627 14.25 4.41491 14.25 4.20494V3.41328C14.25 3.20331 14.1666 3.00195 14.0181 2.85348C13.8697 2.70502 13.6683 2.62161 13.4583 2.62161H11.0833C10.8734 2.62161 10.672 2.5382 10.5235 2.38974C10.3751 2.24127 10.2917 2.03991 10.2917 1.82994ZM15.0417 11.3299C15.2516 11.3299 15.453 11.4134 15.6015 11.5618C15.7499 11.7103 15.8333 11.9116 15.8333 12.1216V12.9133C15.8333 13.5432 15.5831 14.1473 15.1377 14.5927C14.6923 15.0381 14.0882 15.2883 13.4583 15.2883H11.0833C10.8734 15.2883 10.672 15.2049 10.5235 15.0564C10.3751 14.9079 10.2917 14.7066 10.2917 14.4966C10.2917 14.2866 10.3751 14.0853 10.5235 13.9368C10.672 13.7884 10.8734 13.7049 11.0833 13.7049H13.4583C13.6683 13.7049 13.8697 13.6215 14.0181 13.4731C14.1666 13.3246 14.25 13.1232 14.25 12.9133V12.1216C14.25 11.9116 14.3334 11.7103 14.4819 11.5618C14.6303 11.4134 14.8317 11.3299 15.0417 11.3299ZM5.54167 7.37161C5.3317 7.37161 5.13034 7.45502 4.98187 7.60348C4.83341 7.75195 4.75 7.95331 4.75 8.16328C4.75 8.37324 4.83341 8.5746 4.98187 8.72307C5.13034 8.87154 5.3317 8.95494 5.54167 8.95494H5.54246C5.75242 8.95494 5.95378 8.87154 6.10225 8.72307C6.25072 8.5746 6.33413 8.37324 6.33413 8.16328C6.33413 7.95331 6.25072 7.75195 6.10225 7.60348C5.95378 7.45502 5.75242 7.37161 5.54246 7.37161H5.54167Z"/>
<path d="M11.083 8.16317H15.0413M15.0413 8.16317L13.458 6.57983M15.0413 8.16317L13.458 9.7465" stroke="#FF4D47" stroke-width="2.33333" stroke-linecap="round" stroke-linejoin="round"/>
</svg>
