<svg width="28" height="14" viewBox="0 0 28 14" fill="none" xmlns="http://www.w3.org/2000/svg">
<path d="M1.16667 14C0.836111 14 0.559222 13.888 0.336 13.664C0.112778 13.44 0.000777778 13.1631 0 12.8333V12.1625C0 11.3264 0.427778 10.6458 1.28333 10.1208C2.13889 9.59583 3.26667 9.33333 4.66667 9.33333C4.91944 9.33333 5.1625 9.33839 5.39583 9.3485C5.62917 9.35861 5.85278 9.38272 6.06667 9.42083C5.79444 9.82917 5.59028 10.2569 5.45417 10.7042C5.31806 11.1514 5.25 11.6181 5.25 12.1042V14H1.16667ZM8.16667 14C7.83611 14 7.55922 13.888 7.336 13.664C7.11278 13.44 7.00078 13.1631 7 12.8333V12.1042C7 11.4819 7.17033 10.913 7.511 10.3973C7.85167 9.88167 8.33272 9.42978 8.95417 9.04167C9.57561 8.65355 10.3196 8.36189 11.186 8.16667C12.0524 7.97144 12.9904 7.87422 14 7.875C15.0306 7.875 15.9787 7.97222 16.8443 8.16667C17.71 8.36111 18.4536 8.65278 19.075 9.04167C19.6964 9.43056 20.1728 9.88283 20.5042 10.3985C20.8355 10.9142 21.0008 11.4827 21 12.1042V12.8333C21 13.1639 20.8884 13.4412 20.6652 13.6652C20.4419 13.8892 20.1647 14.0008 19.8333 14H8.16667ZM22.75 14V12.1042C22.75 11.5986 22.687 11.1222 22.561 10.675C22.435 10.2278 22.2452 9.80972 21.9917 9.42083C22.2056 9.38194 22.4245 9.35783 22.6485 9.3485C22.8725 9.33917 23.1008 9.33411 23.3333 9.33333C24.7333 9.33333 25.8611 9.59117 26.7167 10.1068C27.5722 10.6225 28 11.3077 28 12.1625V12.8333C28 13.1639 27.888 13.4412 27.664 13.6652C27.44 13.8892 27.1631 14.0008 26.8333 14H22.75ZM4.66667 8.16667C4.025 8.16667 3.47589 7.93839 3.01933 7.48183C2.56278 7.02528 2.33411 6.47578 2.33333 5.83333C2.33333 5.17222 2.562 4.61806 3.01933 4.17083C3.47667 3.72361 4.02578 3.5 4.66667 3.5C5.32778 3.5 5.88194 3.72361 6.32917 4.17083C6.77639 4.61806 7 5.17222 7 5.83333C7 6.475 6.77639 7.0245 6.32917 7.48183C5.88194 7.93917 5.32778 8.16744 4.66667 8.16667ZM23.3333 8.16667C22.6917 8.16667 22.1426 7.93839 21.686 7.48183C21.2294 7.02528 21.0008 6.47578 21 5.83333C21 5.17222 21.2287 4.61806 21.686 4.17083C22.1433 3.72361 22.6924 3.5 23.3333 3.5C23.9944 3.5 24.5486 3.72361 24.9958 4.17083C25.4431 4.61806 25.6667 5.17222 25.6667 5.83333C25.6667 6.475 25.4431 7.0245 24.9958 7.48183C24.5486 7.93917 23.9944 8.16744 23.3333 8.16667ZM14 7C13.0278 7 12.2014 6.65972 11.5208 5.97917C10.8403 5.29861 10.5 4.47222 10.5 3.5C10.5 2.50833 10.8403 1.67728 11.5208 1.00683C12.2014 0.336389 13.0278 0.000777778 14 0C14.9917 0 15.8231 0.335611 16.4943 1.00683C17.1656 1.67806 17.5008 2.50911 17.5 3.5C17.5 4.47222 17.1648 5.29861 16.4943 5.97917C15.8239 6.65972 14.9924 7 14 7Z" fill="#525252"/>
</svg>
