<svg width="26" height="33" viewBox="0 0 26 33" fill="none" xmlns="http://www.w3.org/2000/svg">
<path d="M3.25 32.5C2.35625 32.5 1.59142 32.182 0.9555 31.5461C0.319583 30.9102 0.00108333 30.1448 0 29.25V3.25C0 2.35625 0.3185 1.59142 0.9555 0.9555C1.5925 0.319583 2.35733 0.00108333 3.25 0H14.9094C15.3427 0 15.756 0.0812502 16.1493 0.24375C16.5425 0.40625 16.8875 0.636458 17.1844 0.934375L25.0656 8.81563C25.3635 9.11354 25.5938 9.45912 25.7563 9.85238C25.9188 10.2456 26 10.6584 26 11.0906V29.25C26 30.1437 25.682 30.9091 25.0461 31.5461C24.4102 32.1831 23.6448 32.5011 22.75 32.5H3.25ZM14.625 9.75C14.625 10.2104 14.781 10.5966 15.093 10.9086C15.405 11.2206 15.7907 11.3761 16.25 11.375H22.75L14.625 3.25V9.75ZM11.2531 21.3281L8.97812 19.0531C8.81562 18.8906 8.63958 18.7687 8.45 18.6875C8.26042 18.6063 8.06433 18.5656 7.86175 18.5656C7.65917 18.5656 7.45604 18.6063 7.25238 18.6875C7.04871 18.7687 6.86562 18.8906 6.70312 19.0531C6.37813 19.3781 6.21562 19.7643 6.21562 20.2118C6.21562 20.6592 6.37813 21.0448 6.70312 21.3687L10.1562 24.8625C10.3188 25.025 10.4948 25.1404 10.6844 25.2086C10.874 25.2769 11.0771 25.3105 11.2937 25.3094C11.5104 25.3083 11.7135 25.2747 11.9031 25.2086C12.0927 25.1425 12.2687 25.0272 12.4312 24.8625L19.2969 17.9969C19.6219 17.6719 19.7844 17.2792 19.7844 16.8188C19.7844 16.3583 19.6219 15.9656 19.2969 15.6406C18.9719 15.3156 18.5792 15.1531 18.1187 15.1531C17.6583 15.1531 17.2656 15.3156 16.9406 15.6406L11.2531 21.3281Z" fill="#B4B4B4"/>
</svg>
