<svg width="30" height="30" viewBox="0 0 30 30" xmlns="http://www.w3.org/2000/svg">
<path d="M23.8542 0.5C25.2189 0.5 26.5278 1.04215 27.4928 2.00718C28.4579 2.97221 29 4.28107 29 5.64583V23.8542C29 25.2189 28.4579 26.5278 27.4928 27.4928C26.5278 28.4579 25.2189 29 23.8542 29H5.64583C4.28107 29 2.97221 28.4579 2.00718 27.4928C1.04215 26.5278 0.5 25.2189 0.5 23.8542V5.64583C0.5 4.28107 1.04215 2.97221 2.00718 2.00718C2.97221 1.04215 4.28107 0.5 5.64583 0.5H23.8542ZM23.8542 2.875H5.64583C4.91096 2.875 4.20619 3.16693 3.68656 3.68656C3.16693 4.20619 2.875 4.91096 2.875 5.64583V16.3333H10C10.287 16.3333 10.5642 16.4373 10.7805 16.6259C10.9967 16.8145 11.1374 17.075 11.1764 17.3593L11.1875 17.5208C11.1875 18.4657 11.5628 19.3718 12.2309 20.0399C12.899 20.708 13.8052 21.0833 14.75 21.0833C15.6948 21.0833 16.601 20.708 17.2691 20.0399C17.9372 19.3718 18.3125 18.4657 18.3125 17.5208C18.3125 17.2059 18.4376 16.9038 18.6603 16.6811C18.883 16.4584 19.1851 16.3333 19.5 16.3333H26.625V5.64583C26.6249 4.9502 26.3632 4.28003 25.8918 3.76846C25.4205 3.25689 24.7739 2.94134 24.0806 2.8845L23.8542 2.875Z" stroke="#2E2E2E"/>
</svg>
