<svg width="25" height="25" viewBox="0 0 13 16" fill="none" xmlns="http://www.w3.org/2000/svg">
<path d="M12.1012 8.66667C12.1012 12 9.7679 13.6667 6.99457 14.6333C6.84935 14.6826 6.6916 14.6802 6.5479 14.6267C3.7679 13.6667 1.43457 12 1.43457 8.66667V4C1.43457 3.82319 1.50481 3.65362 1.62983 3.5286C1.75486 3.40358 1.92443 3.33334 2.10124 3.33334C3.43457 3.33334 5.10124 2.53334 6.26124 1.52C6.40247 1.39934 6.58214 1.33304 6.7679 1.33304C6.95367 1.33304 7.13333 1.39934 7.27457 1.52C8.44124 2.54 10.1012 3.33334 11.4346 3.33334C11.6114 3.33334 11.781 3.40358 11.906 3.5286C12.031 3.65362 12.1012 3.82319 12.1012 4V8.66667Z" stroke="white" stroke-width="1.33333" stroke-linecap="round" stroke-linejoin="round"/>
</svg>
