<svg width="21" height="21" viewBox="0 0 21 21" fill="none" xmlns="http://www.w3.org/2000/svg">
<path d="M19.3596 0.0204001C19.8243 0.1156 20.1756 0.528133 20.1756 1.02V10.0867L20.1529 10.2929C20.1061 10.5235 19.981 10.7308 19.7988 10.8797C19.6167 11.0286 19.3886 11.11 19.1533 11.11C18.918 11.11 18.69 11.0286 18.5078 10.8797C18.3256 10.7308 18.2006 10.5235 18.1537 10.2929L18.1333 10.0889V3.47933L3.48387 18.1333L10.0867 18.1356L10.2929 18.156C10.5388 18.2087 10.7565 18.3504 10.9044 18.5538C11.0522 18.7572 11.1196 19.0081 11.0938 19.2582C11.0679 19.5084 10.9506 19.7401 10.7643 19.909C10.578 20.0779 10.3359 20.172 10.0844 20.1733H1.02C0.749479 20.1733 0.490038 20.0659 0.298751 19.8746C0.107464 19.6833 0 19.4239 0 19.1533V10.0867L0.0226666 9.88267C0.0694877 9.65209 0.194584 9.44479 0.376758 9.29589C0.558933 9.14699 0.786982 9.06564 1.02227 9.06564C1.25755 9.06564 1.4856 9.14699 1.66778 9.29589C1.84995 9.44479 1.97505 9.65209 2.02187 9.88267L2.04 10.0867V16.6917L16.6917 2.04H10.0867C9.81614 2.04 9.5567 1.93254 9.36542 1.74125C9.17413 1.54996 9.06667 1.29052 9.06667 1.02C9.06667 0.749479 9.17413 0.490038 9.36542 0.298751C9.5567 0.107464 9.81614 0 10.0867 0H19.1533L19.3596 0.0204001Z" fill="#525252"/>
</svg>
