<svg viewBox="0 0 21 21" xmlns="http://www.w3.org/2000/svg">
<path fill-rule="evenodd" clip-rule="evenodd" d="M19.3151 4.38895e-08C19.6245 4.38895e-08 19.9212 0.122917 20.14 0.341709C20.3588 0.560501 20.4818 0.857247 20.4818 1.16667V7.7665C20.4818 7.9489 20.4391 8.12878 20.357 8.29168C20.275 8.45458 20.1559 8.59597 20.0093 8.7045L11.6116 14.9112L12.7153 16.016C12.934 16.2348 13.0568 16.5315 13.0568 16.8408C13.0568 17.1502 12.934 17.4469 12.7153 17.6657L11.0656 19.3153C10.8924 19.4883 10.6692 19.6025 10.4276 19.6416C10.186 19.6808 9.93818 19.643 9.71925 19.5335L7.17125 18.2607L5.29058 20.1402C5.0718 20.3589 4.77511 20.4818 4.46575 20.4818C4.15639 20.4818 3.8597 20.3589 3.64092 20.1402L0.341584 16.8408C0.122868 16.6221 0 16.3254 0 16.016C0 15.7066 0.122868 15.4099 0.341584 15.1912L2.22108 13.3105L0.948251 10.7625C0.838785 10.5436 0.800951 10.2958 0.840105 10.0541C0.879258 9.81251 0.993416 9.58932 1.16642 9.41617L2.81608 7.7665C3.03487 7.54778 3.33156 7.42492 3.64092 7.42492C3.95028 7.42492 4.24697 7.54778 4.46575 7.7665L5.57058 8.87017L11.7772 0.4725C11.8858 0.325899 12.0272 0.206787 12.1901 0.124728C12.353 0.0426694 12.5328 -4.99841e-05 12.7153 4.38895e-08H19.3151Z"/>
</svg>
