<svg viewBox="0 0 20 20" xmlns="http://www.w3.org/2000/svg">
<path d="M9.87169 0.00699997L9.98569 0L10.1037 0.00699997L10.1627 0.0150001L10.2237 0.0280001L10.3347 0.062C10.4113 0.0903281 10.4842 0.127942 10.5517 0.174L10.6557 0.256L10.9107 0.474C12.928 2.14956 15.4776 3.0493 18.0997 3.011L18.4417 3.001C18.6653 2.9908 18.8858 3.05591 19.068 3.1859C19.2502 3.31589 19.3836 3.50326 19.4467 3.718C19.9381 5.38958 20.0885 7.14288 19.8889 8.87372C19.6893 10.6046 19.1438 12.2776 18.2848 13.7935C17.4259 15.3093 16.271 16.6371 14.8887 17.6978C13.5065 18.7585 11.9252 19.5305 10.2387 19.968C10.0741 20.0107 9.9013 20.0107 9.73669 19.968C8.05011 19.5306 6.46866 18.7587 5.08632 17.698C3.70398 16.6374 2.54897 15.3096 1.68991 13.7938C0.830854 12.2779 0.285287 10.6048 0.0856316 8.8739C-0.114024 7.14301 0.0363053 5.38964 0.527687 3.718C0.590797 3.50326 0.724126 3.31589 0.906334 3.1859C1.08854 3.05591 1.30909 2.9908 1.53269 3.001C4.27015 3.12613 6.95575 2.22499 9.06369 0.474L9.32669 0.249L9.42269 0.174C9.49017 0.127942 9.56305 0.0903281 9.63969 0.062L9.75169 0.0280001C9.79089 0.0186077 9.83163 0.0115947 9.87169 0.00699997Z"/>
</svg>
