<svg viewBox="0 0 19 21" xmlns="http://www.w3.org/2000/svg">
<path fill-rule="evenodd" clip-rule="evenodd" d="M9.35667 0C9.499 0 9.6075 0.126 9.58883 0.267167C9.26782 2.68052 9.30832 5.12825 9.709 7.52967L9.72533 7.63117C9.73507 7.68907 9.76206 7.74268 9.80276 7.78499C9.84347 7.8273 9.89599 7.85634 9.95347 7.86832C10.011 7.88029 10.0707 7.87464 10.1249 7.8521C10.1791 7.82957 10.2253 7.79119 10.2573 7.742L12.152 4.82417C12.1626 4.80779 12.1771 4.79433 12.1942 4.78501C12.2113 4.77569 12.2305 4.7708 12.25 4.7708C12.2695 4.7708 12.2887 4.77569 12.3058 4.78501C12.3229 4.79433 12.3374 4.80779 12.348 4.82417L14.2427 7.742C14.2747 7.79119 14.3209 7.82957 14.3751 7.8521C14.4293 7.87464 14.489 7.88029 14.5465 7.86832C14.604 7.85634 14.6565 7.8273 14.6972 7.78499C14.7379 7.74268 14.7649 7.68907 14.7747 7.63117L14.791 7.52967C15.1935 5.12633 15.2332 2.67867 14.9112 0.267167C14.9067 0.233878 14.9094 0.200013 14.919 0.167844C14.9287 0.135675 14.9451 0.105943 14.9672 0.0806435C14.9893 0.0553436 15.0166 0.0350597 15.0471 0.0211512C15.0777 0.00724269 15.1109 3.11627e-05 15.1445 0H16.9167C17.3808 0 17.8259 0.184375 18.1541 0.512563C18.4823 0.840752 18.6667 1.28587 18.6667 1.75V19.25C18.6667 19.5594 18.5438 19.8562 18.325 20.075C18.1062 20.2938 17.8094 20.4167 17.5 20.4167H4.08333C3.10125 20.4169 2.15198 20.0632 1.40951 19.4204C0.667046 18.7776 0.18113 17.8887 0.0408332 16.9167H0V5.25C0 3.85761 0.553123 2.52226 1.53769 1.53769C2.52226 0.553123 3.85761 0 5.25 0H9.35667ZM4.08333 14H16.9167V18.6667H4.08333C3.46449 18.6667 2.871 18.4208 2.43342 17.9832C1.99583 17.5457 1.75 16.9522 1.75 16.3333C1.75 15.7145 1.99583 15.121 2.43342 14.6834C2.871 14.2458 3.46449 14 4.08333 14Z"/>
</svg>
