<svg viewBox="0 0 28 28" xmlns="http://www.w3.org/2000/svg">
<path d="M13.9997 25.667L11.6663 18.667H2.33301L4.66634 25.667H13.9997ZM13.9997 25.667H18.6663M13.9997 15.167V14.5837C13.9997 12.3833 13.9997 11.2843 13.316 10.6007C12.6323 9.91699 11.5333 9.91699 9.33301 9.91699C7.13267 9.91699 6.03367 9.91699 5.35001 10.6007C4.66634 11.2843 4.66634 12.3833 4.66634 14.5837V15.167" stroke-width="2.5" stroke-linecap="round" stroke-linejoin="round"/>
<path d="M22.1667 15.1668C22.1667 15.7857 21.9208 16.3792 21.4832 16.8167C21.0457 17.2543 20.4522 17.5002 19.8333 17.5002C19.2145 17.5002 18.621 17.2543 18.1834 16.8167C17.7458 16.3792 17.5 15.7857 17.5 15.1668C17.5 14.548 17.7458 13.9545 18.1834 13.5169C18.621 13.0793 19.2145 12.8335 19.8333 12.8335C20.4522 12.8335 21.0457 13.0793 21.4832 13.5169C21.9208 13.9545 22.1667 14.548 22.1667 15.1668ZM11.6667 4.66683C11.6667 5.28567 11.4208 5.87916 10.9832 6.31675C10.5457 6.75433 9.95217 7.00016 9.33333 7.00016C8.71449 7.00016 8.121 6.75433 7.68342 6.31675C7.24583 5.87916 7 5.28567 7 4.66683C7 4.04799 7.24583 3.4545 7.68342 3.01691C8.121 2.57933 8.71449 2.3335 9.33333 2.3335C9.95217 2.3335 10.5457 2.57933 10.9832 3.01691C11.4208 3.4545 11.6667 4.04799 11.6667 4.66683Z"  stroke-width="2.5"/>
<path d="M16.333 20.417H23.333C23.9518 20.417 24.5453 20.6628 24.9829 21.1004C25.4205 21.538 25.6663 22.1315 25.6663 22.7503V23.3337C25.6663 23.9525 25.4205 24.546 24.9829 24.9836C24.5453 25.4212 23.9518 25.667 23.333 25.667H22.1663" stroke-width="2.5" stroke-linecap="round"/>
</svg>
