<svg viewBox="0 0 35 24"  xmlns="http://www.w3.org/2000/svg">
<path fill-rule="evenodd" clip-rule="evenodd" d="M5.3025 14.5572L6.545 4.59971C6.63442 3.88336 6.87061 3.19315 7.23883 2.57221C7.60704 1.95127 8.09936 1.41293 8.68502 0.99085C9.27068 0.568767 9.9371 0.272003 10.6426 0.119104C11.3482 -0.0337947 12.0776 -0.0395438 12.7855 0.102216C14.2852 0.403216 15.967 1.01222 17.5 1.01222C19.033 1.01222 20.7148 0.403216 22.2145 0.102216C22.9222 -0.0392746 23.6515 -0.0333206 24.3569 0.119705C25.0622 0.272731 25.7284 0.569542 26.3138 0.9916C26.8993 1.41366 27.3915 1.9519 27.7596 2.5727C28.1277 3.19351 28.3638 3.88355 28.4533 4.59971L29.6993 14.5572C31.6873 15.0542 35 16.0167 35 18.5805C35 21.3735 31.1272 22.294 29.015 22.763C26.0085 23.4315 21.938 23.8305 17.5 23.8305C13.062 23.8305 8.9915 23.4315 5.985 22.763C3.871 22.294 0 21.3735 0 18.5805C0 16.0167 3.31275 15.0542 5.3025 14.5572ZM6.74275 19.347C5.649 19.1037 4.80025 18.8395 4.1965 18.5805C4.80025 18.3215 5.649 18.0555 6.74275 17.814C9.43425 17.2155 13.2388 16.8305 17.5 16.8305C21.7612 16.8305 25.5657 17.2155 28.2572 17.814C29.351 18.0572 30.1997 18.3215 30.8035 18.5805C30.2015 18.8395 29.351 19.1037 28.2572 19.347C25.5657 19.9455 21.7612 20.3305 17.5 20.3305C13.2388 20.3305 9.43425 19.9455 6.74275 19.347Z"/>
</svg>
